<mxfile host="65bd71144e">
    <diagram id="5j9ENFqLv829F2TiLNV7" name="Page-1">
        <mxGraphModel dx="722" dy="612" grid="1" gridSize="10" guides="1" tooltips="1" connect="1" arrows="1" fold="1" page="1" pageScale="1" pageWidth="850" pageHeight="1100" math="0" shadow="0">
            <root>
                <mxCell id="0"/>
                <mxCell id="1" parent="0"/>
                <mxCell id="2" value="" style="rounded=0;whiteSpace=wrap;html=1;movable=0;resizable=0;rotatable=0;deletable=0;editable=0;connectable=0;" vertex="1" parent="1">
                    <mxGeometry x="100" y="60" width="540" height="500" as="geometry"/>
                </mxCell>
                <mxCell id="3" value="&lt;font style=&quot;font-size: 21px;&quot;&gt;To Do List&lt;/font&gt;" style="text;html=1;strokeColor=none;fillColor=none;align=center;verticalAlign=middle;whiteSpace=wrap;rounded=0;" vertex="1" parent="1">
                    <mxGeometry x="280" y="100" width="180" height="80" as="geometry"/>
                </mxCell>
                <mxCell id="4" value="&lt;font style=&quot;font-size: 21px;&quot;&gt;Completed&lt;/font&gt;" style="text;html=1;strokeColor=none;fillColor=none;align=center;verticalAlign=middle;whiteSpace=wrap;rounded=0;" vertex="1" parent="1">
                    <mxGeometry x="460" y="219" width="180" height="80" as="geometry"/>
                </mxCell>
                <mxCell id="5" value="&lt;font style=&quot;font-size: 21px;&quot;&gt;In Progress&lt;/font&gt;" style="text;html=1;strokeColor=none;fillColor=none;align=center;verticalAlign=middle;whiteSpace=wrap;rounded=0;" vertex="1" parent="1">
                    <mxGeometry x="280" y="219" width="180" height="80" as="geometry"/>
                </mxCell>
                <mxCell id="6" value="&lt;font style=&quot;font-size: 21px;&quot;&gt;Not Started&lt;/font&gt;" style="text;html=1;strokeColor=none;fillColor=none;align=center;verticalAlign=middle;whiteSpace=wrap;rounded=0;" vertex="1" parent="1">
                    <mxGeometry x="100" y="219" width="180" height="80" as="geometry"/>
                </mxCell>
                <mxCell id="7" value="&lt;font style=&quot;font-size: 11px;&quot;&gt;input&lt;span style=&quot;white-space: pre;&quot;&gt;&#9;&lt;/span&gt;&lt;span style=&quot;white-space: pre;&quot;&gt;&#9;&lt;/span&gt;edit&amp;nbsp; &amp;nbsp; &amp;nbsp;del&lt;/font&gt;" style="rounded=1;whiteSpace=wrap;html=1;fontSize=21;" vertex="1" parent="1">
                    <mxGeometry x="115" y="289" width="150" height="40" as="geometry"/>
                </mxCell>
                <mxCell id="8" value="&lt;font style=&quot;font-size: 11px;&quot;&gt;input&lt;span style=&quot;white-space: pre;&quot;&gt;&#9;&lt;/span&gt;&lt;span style=&quot;white-space: pre;&quot;&gt;&#9;&lt;/span&gt;edit&amp;nbsp; &amp;nbsp; &amp;nbsp;del&lt;/font&gt;" style="rounded=1;whiteSpace=wrap;html=1;fontSize=21;" vertex="1" parent="1">
                    <mxGeometry x="295" y="289" width="150" height="40" as="geometry"/>
                </mxCell>
                <mxCell id="9" value="&lt;font style=&quot;font-size: 11px;&quot;&gt;input&lt;span style=&quot;white-space: pre;&quot;&gt;&#9;&lt;/span&gt;&lt;span style=&quot;white-space: pre;&quot;&gt;&#9;&lt;/span&gt;edit&amp;nbsp; &amp;nbsp; &amp;nbsp;del&lt;/font&gt;" style="rounded=1;whiteSpace=wrap;html=1;fontSize=21;" vertex="1" parent="1">
                    <mxGeometry x="475" y="289" width="150" height="40" as="geometry"/>
                </mxCell>
                <mxCell id="10" value="&lt;font style=&quot;font-size: 11px;&quot;&gt;input&lt;span style=&quot;white-space: pre;&quot;&gt;&#9;&lt;/span&gt;&lt;span style=&quot;white-space: pre;&quot;&gt;&#9;&lt;/span&gt;edit&amp;nbsp; &amp;nbsp; &amp;nbsp;del&lt;/font&gt;" style="rounded=1;whiteSpace=wrap;html=1;fontSize=21;" vertex="1" parent="1">
                    <mxGeometry x="115" y="339" width="150" height="40" as="geometry"/>
                </mxCell>
                <mxCell id="11" value="&lt;font style=&quot;font-size: 11px;&quot;&gt;input&lt;span style=&quot;white-space: pre;&quot;&gt;&#9;&lt;/span&gt;&lt;span style=&quot;white-space: pre;&quot;&gt;&#9;&lt;/span&gt;edit&amp;nbsp; &amp;nbsp; &amp;nbsp;del&lt;/font&gt;" style="rounded=1;whiteSpace=wrap;html=1;fontSize=21;" vertex="1" parent="1">
                    <mxGeometry x="475" y="339" width="150" height="40" as="geometry"/>
                </mxCell>
                <mxCell id="12" value="&lt;span style=&quot;font-size: 11px;&quot;&gt;+ Add&lt;/span&gt;" style="rounded=1;whiteSpace=wrap;html=1;fontSize=21;" vertex="1" parent="1">
                    <mxGeometry x="115" y="389" width="150" height="30" as="geometry"/>
                </mxCell>
                <mxCell id="13" value="&lt;span style=&quot;font-size: 11px;&quot;&gt;+ Add&lt;/span&gt;" style="rounded=1;whiteSpace=wrap;html=1;fontSize=21;" vertex="1" parent="1">
                    <mxGeometry x="475" y="389" width="150" height="30" as="geometry"/>
                </mxCell>
                <mxCell id="14" value="&lt;span style=&quot;font-size: 11px;&quot;&gt;+ Add&lt;/span&gt;" style="rounded=1;whiteSpace=wrap;html=1;fontSize=21;" vertex="1" parent="1">
                    <mxGeometry x="295" y="339" width="150" height="30" as="geometry"/>
                </mxCell>
                <mxCell id="15" value="&lt;footer&gt;&lt;br/&gt;    &lt;p class=&quot;developer-name-cont&quot;&gt;&amp;nbsp;Coded with ðŸ–¤ &amp;nbsp;By Mohamed Yasser&lt;/p&gt;&lt;/footer&gt;" style="text;html=1;strokeColor=none;fillColor=none;align=center;verticalAlign=middle;whiteSpace=wrap;rounded=0;fontSize=11;" vertex="1" parent="1">
                    <mxGeometry x="241" y="485" width="250" height="30" as="geometry"/>
                </mxCell>
            </root>
        </mxGraphModel>
    </diagram>
</mxfile>